<svg width="35" height="29" viewBox="0 0 35 29" fill="none" xmlns="http://www.w3.org/2000/svg">
<path d="M32.3357 20.8992C32.3768 16.3445 25.7491 16.0549 17.5719 15.9725C9.3954 15.8905 2.76309 16.0459 2.72313 20.6022C2.68125 25.1564 9.27706 28.9163 17.4547 28.9986C25.6319 29.081 32.295 25.455 32.3357 20.8992Z" fill="#EE8E26"/>
<path d="M17.2637 27.1372C13.0815 27.1372 8.65689 26.1334 4.95306 23.4877C4.23112 22.9724 3.04082 21.8254 2.91595 20.1502C4.2 23.6155 10.241 26.2385 17.5 26.2385C24.8158 26.2385 30.8956 23.5741 32.1144 20.0687C32.089 21.059 31.7079 22.2076 30.4803 23.2576C28.0594 25.3285 22.8798 27.1376 17.2637 27.1372Z" fill="#F3A130"/>
<path d="M32.3369 18.7736C32.3369 22.8966 25.6934 26.2385 17.5 26.2385C9.30666 26.2385 2.66437 22.8966 2.66437 18.7736C2.66437 14.6498 9.30666 11.3075 17.5 11.3075C25.6934 11.3075 32.3369 14.6498 32.3369 18.7736Z" fill="#601F07"/>
<path d="M17.5 24.519C11.2657 24.519 6.05771 22.445 4.80594 19.6792C7.26991 21.5784 11.3918 22.8251 16.0903 22.8657C17.3671 23.5936 18.3814 24.1799 18.9047 24.4833C18.4433 24.5069 17.9749 24.519 17.5 24.519ZM19.607 24.4387C20.0712 24.0366 21.0252 23.2191 22.2724 22.191C24.3271 21.6997 26.1276 20.9621 27.5353 20.0528C27.8204 20.2411 28.1259 20.3778 28.4801 20.3778C28.5204 20.3778 28.5616 20.3762 28.6038 20.3726C29.1344 20.3255 29.3415 20.1251 29.4372 19.8419C29.4549 19.8423 29.4729 19.8423 29.4906 19.8423C29.7069 19.8423 29.9263 19.8208 30.1511 19.7705C28.9811 22.1744 24.8151 24.0379 19.607 24.4387Z" fill="#6A260B"/>
<path d="M30.7681 15.2487C30.8127 19.3607 24.4966 22.7712 16.6617 22.8649C8.82604 22.9594 2.44001 19.7007 2.39583 15.5879C2.35203 11.475 8.66812 8.06414 16.5026 7.97164C24.3371 7.87791 30.7247 11.1355 30.7681 15.2487Z" fill="#DB2C1A"/>
<path d="M30.729 14.8324C30.772 18.7123 24.464 21.935 16.6383 22.0295C8.81374 22.1216 2.43654 19.0507 2.39504 15.1704C2.35316 11.2905 8.66428 8.0674 16.4884 7.9753C24.3133 7.88077 30.689 10.9517 30.729 14.8324Z" fill="#FA5E43"/>
<path d="M4.64694 16.7251C9.10921 18.7643 19.2947 24.7101 19.2947 24.7101C19.2947 24.7101 26.891 18.0319 32.6758 14.5403C38.7149 10.8957 -1.76022 13.7966 4.64694 16.7251Z" fill="#FFD177"/>
<path d="M19.2948 23.9157C19.2948 23.9157 15.5886 21.7524 11.6681 19.5883C11.7653 19.5773 11.8571 19.5708 11.9466 19.5708C12.317 19.5708 12.6432 19.6796 13.115 20.0155C13.8028 20.506 14.1309 20.9998 15.0546 21.0258C15.0772 21.0266 15.0991 21.0266 15.121 21.0266C16.1131 21.0266 16.4562 20.3786 17.2496 19.8516C17.4463 19.721 17.6745 19.5875 17.9189 19.4678C18.2789 19.8548 18.6562 20.1291 19.0247 20.1291C19.3424 20.1291 19.6536 19.925 19.941 19.4118C19.9906 19.3233 20.0371 19.2414 20.0809 19.1655C20.638 19.4183 20.7917 19.9912 21.4902 20.237C21.6857 20.306 21.879 20.3356 22.0703 20.3356C22.6947 20.3356 23.2998 20.0179 23.9165 19.6999C24.2642 19.5205 24.6154 19.3412 24.9754 19.2191C21.7726 21.7378 19.2948 23.9157 19.2948 23.9157Z" fill="#FEC750"/>
<path d="M1.73804 17.3937C2.25174 17.9593 2.96792 17.6875 3.66181 17.4156C4.53359 17.074 5.36965 16.7324 5.72274 18.0526C5.89948 18.7111 5.55061 19.5522 6.57416 19.7153C6.96875 19.7778 7.28496 19.6333 7.60616 19.4889C7.9727 19.3246 8.34577 19.1598 8.84832 19.3023C9.8104 19.5753 9.9222 19.8853 10.9123 19.712C11.8978 19.5396 12.2763 19.4183 13.115 20.0155C13.8028 20.506 14.1309 20.9998 15.0545 21.0258C16.0981 21.0554 16.4385 20.39 17.2496 19.8516C17.9073 19.415 18.9144 18.9481 19.7085 19.0604C20.5991 19.1862 20.6579 19.9441 21.4901 20.237C22.3247 20.5308 23.1111 20.1153 23.9164 19.6999C24.5604 19.3676 25.2166 19.0353 25.9197 19.0657C27.3782 19.1286 28.7445 20.2046 30.362 19.7153C32.1694 19.168 31.4213 17.3661 32.816 16.0832C33.6982 15.2726 33.9633 15.5051 34.188 14.2543C34.3594 13.3041 34.7782 12.5137 34.2979 11.6572C32.9255 9.20828 28.2934 8.88087 25.9144 8.38386C22.4983 7.671 18.6404 7.89212 15.2613 8.71127C14.0164 9.01394 -1.23386 14.1236 1.73804 17.3937Z" fill="#769927"/>
<path d="M0.568839 16.1169C1.00108 16.3113 1.52707 16.1823 2.05459 16.0528C2.59173 15.921 3.1304 15.7895 3.5734 16.0001C4.4886 16.4342 3.90229 17.4538 4.58504 18.2161C5.52521 19.267 5.7519 18.4997 6.65327 18.1561C7.81129 17.7159 7.64877 18.4125 8.15017 19.3936C8.48789 20.052 9.47456 21.186 10.3018 20.728C10.9284 20.3807 11.1582 18.6908 11.6442 18.0745C12.8848 16.4995 15.1617 15.624 16.425 17.3974C17.2472 18.5521 18.786 21.4737 19.9409 19.4118C20.5472 18.3297 20.669 18.2056 21.6511 19.1696C22.5521 20.0549 22.466 20.2322 23.5334 19.6086C24.3502 19.1315 25.1571 18.6734 26.1157 19.0572C26.9556 19.394 27.5741 20.4638 28.6038 20.3726C29.8203 20.265 29.335 19.3501 29.7127 18.4896C30.1637 17.4619 31.2273 17.201 32.2005 17.1978C32.3757 17.197 32.5985 17.2274 32.8394 17.2574C33.5771 17.3503 34.4854 17.4428 34.7128 16.6569C35.0725 15.4171 33.2002 15.5664 33.2578 14.3642C33.2955 13.5828 33.7016 13.5933 34.1204 13.6035C34.4112 13.6108 34.7086 13.6177 34.8915 13.3584C35.3964 12.6448 33.9994 11.5063 33.5675 11.1959C32.2427 10.2453 30.3186 10.2993 28.5028 10.3532C27.6525 10.3784 26.8257 10.4039 26.0957 10.326C22.9186 9.98687 19.8288 9.62333 16.6233 9.88543C14.623 10.0497 12.1506 10.0209 10.3025 10.89C9.16257 11.426 8.1152 12.364 6.86074 12.5802C6.30286 12.6764 5.76304 12.5782 5.22437 12.4796C4.78406 12.3993 4.34414 12.319 3.89576 12.3449C2.94022 12.4009 -1.56932 15.1533 0.568839 16.1169Z" fill="#A4C256"/>
<path d="M33.362 11.4459C33.362 17.7666 26.2763 18.0754 17.5366 18.0754C8.79722 18.0754 1.71191 17.7666 1.71191 11.4459C1.71191 5.12429 8.79722 5.72205e-06 17.5366 5.72205e-06C26.2763 5.72205e-06 33.362 5.12429 33.362 11.4459Z" fill="#EE8E26"/>
<path d="M22.0556 6.04446C23.4707 6.10654 25.5735 6.51875 26.7461 5.59776C28.3448 4.34083 26.6669 2.44165 25.2815 1.65617C24.6798 1.31536 24.0412 1.03865 23.3807 0.809826C21.6687 0.317279 19.811 0.0353098 17.8661 0.00650311C16.1318 0.0316582 14.4047 0.271436 12.8218 0.651193C11.6299 0.936009 10.2775 1.31658 8.99383 1.81359C7.14537 2.67251 5.5601 3.80122 4.34522 5.12388C3.01238 7.60568 5.25812 10.1451 9.02688 9.46309C11.5024 9.01557 13.2475 7.3939 15.6123 6.71107C17.6713 6.11709 19.8633 5.94952 22.0556 6.04446Z" fill="#F69F37"/>
<path d="M17.5365 18.0754C17.5035 18.0754 17.47 18.0754 17.437 18.0754C17.47 18.0754 17.5035 18.0754 17.5365 18.0754C26.2762 18.0754 33.3619 17.7666 33.3619 11.4459C33.3619 17.7666 26.2762 18.0754 17.5365 18.0754Z" fill="#ADA748"/>
<path d="M17.5366 18.0754C17.5035 18.0754 17.4701 18.0754 17.4371 18.0754C9.22563 18.0729 2.50072 17.7755 1.77994 12.4362C2.73433 13.203 3.61379 14.4153 4.36378 14.8766C5.50951 15.5818 7.10015 16.0476 8.43261 16.3555C10.3725 16.8042 12.4726 16.9337 14.5712 16.9337C15.7192 16.9337 16.8665 16.8947 17.9865 16.8485C21.0502 16.7202 24.2423 16.4046 26.9525 15.1554C28.4283 14.4746 29.6597 13.8481 30.8269 12.8225C31.1627 12.5275 32.3746 11.1951 33.2932 10.4052C33.3362 10.748 33.362 11.0945 33.362 11.4459C33.362 17.7666 26.2763 18.0754 17.5366 18.0754Z" fill="#E18226"/>
<path d="M11.6711 4.32175C11.5305 4.50919 11.3203 4.58101 11.2012 4.4816C11.0821 4.38179 11.0994 4.14932 11.2404 3.96147C11.3806 3.77402 11.7099 3.80121 11.7099 3.80121C11.7099 3.80121 11.8117 4.1339 11.6711 4.32175Z" fill="#FEE9C6"/>
<path d="M18.4279 4.32377C18.2208 4.41952 18.0026 4.37651 17.9423 4.22964C17.8819 4.08237 18.0018 3.88641 18.2101 3.79147C18.4183 3.69694 18.6957 3.88559 18.6957 3.88559C18.6957 3.88559 18.6366 4.22924 18.4279 4.32377Z" fill="#FEE9C6"/>
<path d="M20.7536 0.902337C20.5849 1.06179 20.3655 1.09384 20.2645 0.97415C20.163 0.854868 20.2184 0.628477 20.3882 0.469433C20.5569 0.31039 20.8773 0.397619 20.8773 0.397619C20.8773 0.397619 20.923 0.743293 20.7536 0.902337Z" fill="#FEE9C6"/>
<path d="M23.2551 4.11645C23.1429 4.32378 22.9455 4.42887 22.8129 4.34935C22.6811 4.26983 22.6661 4.03694 22.7776 3.8288C22.8901 3.62107 23.2198 3.59591 23.2198 3.59591C23.2198 3.59591 23.3677 3.90832 23.2551 4.11645Z" fill="#FEE9C6"/>
<path d="M18.1571 6.03269C18.2731 6.23839 18.2612 6.47168 18.1302 6.55404C18.0003 6.63599 17.8005 6.53497 17.6845 6.32927C17.5689 6.12317 17.711 5.80833 17.711 5.80833C17.711 5.80833 18.0418 5.82659 18.1571 6.03269Z" fill="#FEE9C6"/>
<path d="M24.3798 5.14617C24.487 5.35675 24.4647 5.58923 24.331 5.6651C24.1969 5.74057 24.0017 5.63061 23.8953 5.41963C23.7881 5.20865 23.9437 4.9007 23.9437 4.9007C23.9437 4.9007 24.2734 4.93479 24.3798 5.14617Z" fill="#FEE9C6"/>
<path d="M26.6524 5.51499C26.4645 5.64888 26.2432 5.64968 26.1583 5.5162C26.0734 5.38353 26.1572 5.16728 26.3446 5.03379C26.5329 4.89991 26.8387 5.03217 26.8387 5.03217C26.8387 5.03217 26.8407 5.38151 26.6524 5.51499Z" fill="#FEE9C6"/>
<path d="M15.8171 8.10186C15.952 8.29417 15.9616 8.52746 15.8402 8.62281C15.7176 8.71775 15.5094 8.63944 15.3749 8.44672C15.2404 8.254 15.3526 7.92577 15.3526 7.92577C15.3526 7.92577 15.6826 7.90914 15.8171 8.10186Z" fill="#FEE9C6"/>
<path d="M14.5074 1.99899C14.3356 2.1552 14.1162 2.18319 14.0171 2.06188C13.918 1.94057 13.9771 1.7154 14.1489 1.55879C14.3206 1.40299 14.6391 1.4959 14.6391 1.4959C14.6391 1.4959 14.6795 1.84279 14.5074 1.99899Z" fill="#FEE9C6"/>
<path d="M8.72418 6.73665C8.53592 6.86973 8.31501 6.86973 8.23048 6.73665C8.14557 6.60316 8.23048 6.38732 8.41835 6.25384C8.60661 6.12157 8.91206 6.25384 8.91206 6.25384C8.91206 6.25384 8.91205 6.60357 8.72418 6.73665Z" fill="#FEE9C6"/>
<path d="M14.7802 5.37015C14.9681 5.50322 15.0518 5.71905 14.9677 5.85253C14.8828 5.98601 14.6619 5.9856 14.474 5.85213C14.2857 5.71905 14.2857 5.37015 14.2857 5.37015C14.2857 5.37015 14.5919 5.23707 14.7802 5.37015Z" fill="#FEE9C6"/>
<path d="M10.6802 8.02968C10.8712 8.15789 10.9603 8.37211 10.8792 8.50722C10.7978 8.64273 10.5773 8.64841 10.3855 8.52021C10.1938 8.392 10.1861 8.04267 10.1861 8.04267C10.1861 8.04267 10.4881 7.90147 10.6802 8.02968Z" fill="#FEE9C6"/>
<path d="M6.30556 5.05451C6.47422 5.21477 6.52916 5.44117 6.42773 5.56004C6.32669 5.67933 6.10769 5.64646 5.93902 5.4866C5.77035 5.32675 5.81685 4.98188 5.81685 4.98188C5.81685 4.98188 6.13727 4.89465 6.30556 5.05451Z" fill="#FEE9C6"/>
<path d="M9.33162 2.78734C9.49452 2.95328 9.54178 3.18089 9.43727 3.29693C9.332 3.41256 9.11416 3.37239 8.95048 3.20645C8.7872 3.04051 8.84444 2.69726 8.84444 2.69726C8.84444 2.69726 9.16756 2.6218 9.33162 2.78734Z" fill="#FEE9C6"/>
<path d="M11.688 1.96495C11.758 2.19378 11.6969 2.41773 11.5524 2.46641C11.4076 2.5155 11.2343 2.37026 11.1647 2.14265C11.0963 1.91464 11.3011 1.64119 11.3011 1.64119C11.3011 1.64119 11.6193 1.73735 11.688 1.96495Z" fill="#FEE9C6"/>
<path d="M13.0858 9.28579C13.3117 9.31095 13.4812 9.46065 13.4654 9.6197C13.45 9.77914 13.2541 9.88828 13.0286 9.86353C12.8038 9.83797 12.649 9.52963 12.649 9.52963C12.649 9.52963 12.8603 9.26145 13.0858 9.28579Z" fill="#FEE9C6"/>
<path d="M20.898 8.46945C20.6717 8.48284 20.4816 8.36315 20.4731 8.20289C20.465 8.04344 20.6414 7.90306 20.8685 7.88967C21.094 7.87669 21.293 8.15542 21.293 8.15542C21.293 8.15542 21.124 8.45606 20.898 8.46945Z" fill="#FEE9C6"/>
<path d="M19.9168 9.45701C20.0036 9.67773 19.9606 9.90696 19.82 9.96822C19.6801 10.0299 19.4961 9.89966 19.4089 9.67894C19.3228 9.45823 19.5061 9.16773 19.5061 9.16773C19.5061 9.16773 19.8303 9.2359 19.9168 9.45701Z" fill="#FEE9C6"/>
<path d="M6.87111 8.31366C6.85535 8.55263 6.72049 8.73723 6.56911 8.72668C6.41734 8.71573 6.30708 8.51327 6.32244 8.27471C6.33743 8.03574 6.62406 7.86169 6.62406 7.86169C6.62406 7.86169 6.88647 8.07469 6.87111 8.31366Z" fill="#FEE9C6"/>
<path d="M18.1524 0.935572C17.9999 1.11206 17.7851 1.16765 17.6725 1.05973C17.5611 0.951804 17.5937 0.720541 17.747 0.544456C17.9 0.367153 18.2265 0.419489 18.2265 0.419489C18.2265 0.419489 18.3049 0.759081 18.1524 0.935572Z" fill="#FEE9C6"/>
<path d="M26.3842 6.43274C26.4453 6.66359 26.3769 6.88552 26.2305 6.92934C26.0849 6.97275 25.917 6.82101 25.8548 6.59137C25.7933 6.36052 26.0073 6.09517 26.0073 6.09517C26.0073 6.09517 26.3224 6.20269 26.3842 6.43274Z" fill="#FEE9C6"/>
<path d="M21.2899 5.56976C21.0713 5.63062 20.8623 5.55475 20.8231 5.39936C20.7847 5.24438 20.9311 5.06951 21.1509 5.00866C21.3702 4.9478 21.6173 5.17865 21.6173 5.17865C21.6173 5.17865 21.5093 5.50931 21.2899 5.56976Z" fill="#FEE9C6"/>
<path d="M24.1143 8.05242C24.0052 8.26218 23.8092 8.36969 23.6755 8.29301C23.543 8.21592 23.5238 7.98344 23.6317 7.77368C23.7408 7.56392 24.0709 7.53309 24.0709 7.53309C24.0709 7.53309 24.2234 7.84225 24.1143 8.05242Z" fill="#FEE9C6"/>
<path d="M24.7222 2.4717C24.7003 2.70985 24.56 2.8908 24.4086 2.87579C24.258 2.85997 24.1535 2.65427 24.1747 2.41652C24.1966 2.17795 24.4878 2.01242 24.4878 2.01242C24.4878 2.01242 24.7437 2.23395 24.7222 2.4717Z" fill="#FEE9C6"/>
<path d="M19.3846 2.63925C19.1579 2.63803 18.9743 2.50658 18.975 2.34632C18.9758 2.18606 19.1606 2.05785 19.3865 2.05826C19.6132 2.06029 19.7957 2.35119 19.7957 2.35119C19.7957 2.35119 19.6109 2.64047 19.3846 2.63925Z" fill="#FEE9C6"/>
<path d="M22.4983 2.20513C22.3296 2.36417 22.1099 2.39663 22.0088 2.27613C21.9085 2.15685 21.9635 1.93087 22.1329 1.77142C22.3024 1.61279 22.6224 1.70042 22.6224 1.70042C22.6224 1.70042 22.667 2.04569 22.4983 2.20513Z" fill="#FEE9C6"/>
</svg>
