<svg width="41" height="39" viewBox="0 0 41 39" fill="none" xmlns="http://www.w3.org/2000/svg">
<path d="M0.0242449 36.8102C0.0369555 37.5993 0.0553157 38.3429 0.0776769 38.9995L0.0917991 39C0.173476 39 0.253506 38.9962 0.333536 38.993C0.355662 38.3377 0.374021 37.5969 0.386497 36.8102C0.39191 36.3593 0.404386 36.6383 0.404386 36.1652C0.406269 35.6921 0.408856 35.2121 0.410974 34.7311C0.40862 34.251 0.406033 33.7705 0.40415 33.2975C0.397795 32.8244 0.39191 32.917 0.386025 32.4665C0.371667 31.5661 0.34954 30.7253 0.322942 30.0047C0.299875 29.2837 0.262922 28.6834 0.245504 28.2628C0.223613 27.8426 0.205487 27.6024 0.205487 27.6024C0.205487 27.6024 0.187364 27.8426 0.165473 28.2628C0.148055 28.6834 0.1111 29.2837 0.0880322 30.0047C0.0614342 30.7253 0.0393098 31.5661 0.0247161 32.4665C0.019067 32.917 0.000707062 33.7705 0.00682697 33.2975C0.00776849 33.1082 0.00564914 33.5887 0 34.7311C0.00211843 35.2121 0.00447316 35.6921 0.00682697 36.1652C0.00682697 36.6383 0.0190665 36.3593 0.0242449 36.8102Z" fill="#FFDD9C"/>
<path d="M7.38611 35.3925C6.643 36.2951 4.66555 35.8482 3.79345 35.393C0.917779 33.8934 0.572471 30.9078 4.97766 29.8126C5.94321 29.5723 6.80753 30.5326 7.14484 31.4492C7.4772 32.3528 8.11909 34.5021 7.38611 35.3925Z" fill="#F61D27"/>
<path d="M7.38611 35.3925C6.643 36.2951 4.66555 35.8482 3.79345 35.393C0.917779 33.8934 0.572471 30.9078 4.97766 29.8126C5.94321 29.5723 6.80753 30.5326 7.14484 31.4492C7.4772 32.3528 8.11909 34.5021 7.38611 35.3925Z" fill="#DB3625"/>
<path d="M1.69287 32.2234C1.715 32.124 1.74654 32.0257 1.78491 31.9285C1.91413 31.7977 2.05489 31.6721 2.19565 31.5437C2.28368 31.4653 2.37007 31.383 2.46116 31.3051C2.55555 31.2308 2.65088 31.1575 2.74621 31.0831C2.84272 31.0107 2.93899 30.9384 3.03503 30.8662C3.13247 30.7977 3.23486 30.7409 3.33396 30.6784C3.43353 30.617 3.53239 30.5564 3.62984 30.4963L3.70281 30.4516L3.7207 30.44L3.74306 30.4283L3.78119 30.409C3.83203 30.3833 3.8824 30.3571 3.93278 30.3318C4.13309 30.2301 4.33457 30.1483 4.52782 30.0805C4.62362 30.0427 4.72013 30.0163 4.81217 29.9879C4.89455 29.9612 4.97482 29.9386 5.05367 29.9203C5.03508 29.9581 5.01907 29.9954 5.00565 30.0321C4.95222 30.049 4.89832 30.068 4.84347 30.0884C4.75403 30.1199 4.66152 30.1512 4.56901 30.1928C4.38236 30.2676 4.19029 30.3597 3.99445 30.459C3.94619 30.485 3.897 30.5107 3.84757 30.5372L3.81061 30.5569L3.79531 30.5651L3.77742 30.5766L3.70516 30.6226C3.60842 30.6841 3.51073 30.7469 3.41187 30.809C3.31443 30.8729 3.21156 30.9323 3.11717 31.0016C3.02467 31.0735 2.93193 31.1454 2.83942 31.2173C2.74574 31.288 2.65182 31.3588 2.55861 31.429C2.46893 31.5038 2.38207 31.5831 2.29427 31.6599C2.11985 31.8143 1.94473 31.9619 1.79173 32.1248C1.75925 32.1587 1.72606 32.1902 1.69287 32.2234Z" fill="#D71E15"/>
<path d="M2.26064 34.1897C2.23263 34.1551 2.20556 34.12 2.1792 34.0846C2.25523 33.9081 2.34255 33.7255 2.43294 33.538C2.52545 33.3311 2.64455 33.1293 2.76083 32.9218C2.81968 32.8188 2.87664 32.7133 2.93854 32.6103C3.00563 32.5096 3.07342 32.4085 3.14121 32.3078C3.21018 32.2082 3.27938 32.1082 3.34834 32.0091C3.41943 31.9124 3.49946 31.8258 3.57361 31.7344C3.64964 31.6438 3.72402 31.5548 3.7984 31.466L3.85371 31.3999L3.86737 31.3835L3.88502 31.3652L3.91515 31.3345C3.9554 31.2931 3.99518 31.2529 4.03496 31.2125C4.19384 31.0516 4.35955 30.909 4.52244 30.7818C4.60152 30.7157 4.68438 30.6589 4.76347 30.6029C4.8282 30.555 4.89199 30.5105 4.95601 30.4703C4.96119 30.5042 4.96849 30.5374 4.9779 30.5701C4.92659 30.6067 4.87551 30.6459 4.82373 30.688C4.74935 30.7469 4.67026 30.8066 4.59564 30.8749C4.4417 31.0069 4.28823 31.156 4.13311 31.3128C4.09451 31.3532 4.05685 31.3941 4.01778 31.435L3.98859 31.4653L3.97658 31.478L3.96317 31.4946L3.90856 31.5615C3.8363 31.651 3.76239 31.7414 3.68824 31.8325C3.61551 31.9254 3.53595 32.0144 3.46769 32.1106C3.40225 32.2087 3.33658 32.3068 3.27043 32.4052C3.20359 32.5019 3.1365 32.599 3.06965 32.696C3.00728 32.7962 2.94937 32.8994 2.89005 33.0004C2.77189 33.2034 2.65138 33.3999 2.55675 33.6034C2.4593 33.8052 2.35432 33.9937 2.26582 34.1801L2.26064 34.1897Z" fill="#D71E15"/>
<path d="M3.94715 35.1549C3.9062 35.1438 3.86524 35.1323 3.82428 35.12C3.84217 34.9762 3.86383 34.828 3.88548 34.6765C3.91208 34.4507 3.96551 34.222 4.01424 33.9884C4.03989 33.8718 4.06225 33.7539 4.09003 33.6354C4.12392 33.5192 4.15852 33.4016 4.19289 33.285C4.22914 33.1683 4.26515 33.0517 4.3007 32.9353C4.33977 32.8215 4.38991 32.7133 4.43345 32.6034C4.47841 32.4942 4.52337 32.3852 4.56715 32.2784L4.60058 32.1981L4.60858 32.1779L4.61964 32.1556L4.63941 32.1166C4.66554 32.0646 4.69096 32.0134 4.71662 31.9624C4.82019 31.7599 4.93576 31.5731 5.05275 31.4011C5.10783 31.3128 5.17044 31.2335 5.22881 31.1555C5.25306 31.1214 5.27754 31.0884 5.30249 31.0565C5.32673 31.0781 5.35192 31.0993 5.37804 31.1197C5.35568 31.1515 5.33356 31.1842 5.31143 31.2178C5.25847 31.2972 5.20104 31.378 5.15043 31.467C5.04286 31.6402 4.94117 31.8302 4.84019 32.0283C4.81642 32.0788 4.79171 32.1293 4.76699 32.1801L4.74863 32.2183L4.74063 32.234L4.73286 32.2542L4.70085 32.335C4.65871 32.4422 4.6154 32.5517 4.57209 32.6618C4.53043 32.7727 4.48147 32.8821 4.44499 32.9949C4.4118 33.1087 4.37861 33.2229 4.34565 33.3367C4.31035 33.4504 4.27575 33.5637 4.24067 33.6765C4.21149 33.7917 4.18701 33.9081 4.16088 34.0228C4.10886 34.252 4.05284 34.4774 4.02342 34.7003C4.00035 34.8566 3.9721 35.0079 3.94715 35.1549Z" fill="#D71E15"/>
<path d="M5.23657 35.2001C5.23987 35.1279 5.24387 35.0551 5.24905 34.9815C5.27988 34.5132 5.33237 34.0151 5.40205 33.5192C5.47854 33.0242 5.57129 32.5327 5.67579 32.0752C5.73017 31.8366 5.79066 31.6079 5.85327 31.3934C5.88905 31.4085 5.9253 31.4227 5.96225 31.4364C5.96108 31.4415 5.95966 31.4468 5.95849 31.4518C5.90765 31.6596 5.86222 31.8792 5.81208 32.107C5.71463 32.5618 5.63013 33.0517 5.56116 33.5437C5.48561 34.0346 5.42606 34.5284 5.38792 34.9925C5.38416 35.0478 5.38016 35.1027 5.37615 35.157C5.33002 35.1734 5.28341 35.1876 5.23657 35.2001Z" fill="#D71E15"/>
<path d="M5.95521 35.9151C5.95474 35.9151 5.95403 35.9151 5.95356 35.9151C5.95403 35.9151 5.95474 35.9151 5.95521 35.9151ZM5.95592 35.9151C6.53543 35.9148 7.0714 35.7746 7.3861 35.3925C7.63232 35.0933 7.72341 34.6522 7.72317 34.164C7.72341 34.6522 7.63232 35.0933 7.3861 35.3925C7.0714 35.7746 6.53566 35.9148 5.95592 35.9151ZM3.81722 35.4052C3.81628 35.4047 3.81534 35.4043 3.81416 35.4038C3.81534 35.4043 3.81628 35.4047 3.81722 35.4052ZM3.80852 35.4007C3.80828 35.4007 3.80804 35.4007 3.80804 35.4004C3.80804 35.4007 3.80828 35.4007 3.80852 35.4007Z" fill="#FDD2D4"/>
<path d="M5.9552 35.9151C5.95473 35.9151 5.95403 35.9151 5.95355 35.9151C5.17726 35.9146 4.32306 35.6633 3.81722 35.4052C3.81628 35.4047 3.81533 35.4043 3.81416 35.4038C3.81227 35.4026 3.81039 35.4016 3.80851 35.4007C3.80827 35.4007 3.80804 35.4007 3.80804 35.4004C3.80309 35.398 3.79815 35.3954 3.79344 35.393C3.35987 35.1666 2.98537 34.9067 2.67419 34.6241C2.76082 34.671 2.84791 34.7174 2.93547 34.7609C3.20993 34.8958 3.51169 35.0257 3.82428 35.12C3.8158 35.1897 3.80804 35.2585 3.80168 35.3263C3.79933 35.3485 3.79768 35.3708 3.79532 35.3937C3.82922 35.4117 3.86594 35.4293 3.90337 35.4468C3.90831 35.4112 3.91278 35.3771 3.91796 35.3408C3.92667 35.2794 3.93656 35.2176 3.94715 35.1549C4.20113 35.2227 4.46028 35.2648 4.71638 35.2648C4.89221 35.2648 5.06663 35.2448 5.23658 35.2001C5.22975 35.3574 5.22693 35.511 5.22669 35.659C5.22669 35.7246 5.22834 35.7867 5.22881 35.8506C5.26506 35.8562 5.30131 35.8624 5.33756 35.867C5.33897 35.7994 5.34085 35.7323 5.34415 35.6618C5.35121 35.4995 5.36345 35.3307 5.37616 35.157C5.42371 35.1402 5.47102 35.1212 5.51786 35.0998C6.07172 34.8475 6.39231 34.1188 6.45021 33.5543C6.50859 32.9798 6.17364 32.328 6.39042 31.8189C6.4262 31.7349 6.47069 31.6546 6.52271 31.5795C6.52318 31.5795 6.52342 31.5795 6.52389 31.5795C6.53142 31.8412 6.54766 32.1224 6.57685 32.4143C6.62298 32.8819 6.69124 33.3775 6.77528 33.8711C6.86684 34.3636 6.97535 34.8516 7.09422 35.3052C7.11964 35.4026 7.14671 35.4973 7.17472 35.5909C7.21427 35.5613 7.25169 35.5298 7.28747 35.4964C7.26864 35.4209 7.24934 35.3465 7.22957 35.2691C7.11776 34.8174 7.01796 34.3311 6.93393 33.8415C6.84283 33.3533 6.76798 32.8619 6.71549 32.3989C6.69101 32.1673 6.66394 31.9437 6.64652 31.7313C6.64228 31.6851 6.63828 31.6392 6.63475 31.594C6.72985 31.6043 6.82471 31.6096 6.91768 31.6096C6.96405 31.6096 7.01019 31.6082 7.05562 31.6055C7.08551 31.5591 7.11682 31.5115 7.14954 31.4622C7.37056 32.0656 7.72269 33.2056 7.72316 34.164C7.7234 34.6522 7.63231 35.0933 7.3861 35.3925C7.07139 35.7746 6.53542 35.9148 5.95591 35.9151C5.95567 35.9151 5.95544 35.9151 5.9552 35.9151Z" fill="#D92C1F"/>
<path d="M7.1747 35.5909C7.14669 35.4973 7.11962 35.4026 7.0942 35.3052C6.97533 34.8516 6.86682 34.3636 6.77525 33.8711C6.69122 33.3775 6.62296 32.8819 6.57683 32.4143C6.54764 32.1224 6.5314 31.8412 6.52386 31.5795C6.56082 31.5851 6.59777 31.5899 6.63473 31.594C6.63826 31.6392 6.64226 31.6851 6.6465 31.7313C6.66392 31.9437 6.69099 32.1673 6.71547 32.3989C6.76796 32.8619 6.84281 33.3533 6.9339 33.8415C7.01793 34.3311 7.11774 34.8174 7.22954 35.2691C7.24931 35.3465 7.26862 35.4208 7.28745 35.4964C7.25167 35.5298 7.21424 35.5613 7.1747 35.5909Z" fill="#D51911"/>
<path d="M5.05837 29.9107C4.5337 30.9578 5.96789 31.6697 7.0556 31.6055C8.36362 29.5745 12.521 24.6593 15.5906 24.3116C16.2963 24.2312 15.2349 23.4864 14.9012 22.7481C14.5874 22.0544 11.6927 19.1994 11.1461 19.7562C8.0854 22.8724 6.58813 26.8602 5.05837 29.9107Z" fill="#FA5E43"/>
<path d="M11.5088 26.555C11.5086 26.5547 11.5084 26.5547 11.5081 26.5547C11.5378 26.5289 11.5673 26.5036 11.5971 26.4783C11.5971 26.4783 11.5971 26.4783 11.5971 26.4785C11.5673 26.5036 11.5381 26.5297 11.5088 26.555Z" fill="#FDD2D4"/>
<path d="M10.6833 26.1516C10.5633 26.0809 10.444 25.9965 10.3194 25.9116C10.186 25.8096 10.045 25.7067 9.91387 25.5879C9.78417 25.4674 9.65 25.3469 9.53043 25.212C9.40591 25.0812 9.29928 24.9357 9.18889 24.7969C9.16582 24.7637 9.14322 24.7308 9.12063 24.6976C9.18042 24.5997 9.24091 24.5025 9.30258 24.4066C9.35224 24.4729 9.40356 24.5388 9.45158 24.6076C9.55844 24.7358 9.66083 24.8698 9.78064 24.9895C9.89033 25.1184 10.0141 25.2344 10.1342 25.3515C10.2573 25.4643 10.379 25.5761 10.5004 25.68C10.629 25.7757 10.7431 25.882 10.8632 25.9677C10.8698 25.9722 10.8761 25.9766 10.8825 25.9811C10.8156 26.0374 10.749 26.0942 10.6833 26.1516ZM8.64068 23.7413C8.61385 23.6608 8.59055 23.5826 8.57548 23.5061C8.5397 23.3772 8.52793 23.2553 8.51593 23.1487V23.1475C8.54653 23.098 8.5776 23.0489 8.60914 22.9996C8.61879 23.0405 8.62985 23.0833 8.64398 23.129C8.67693 23.2274 8.7113 23.3378 8.76214 23.4534C8.76732 23.4674 8.77273 23.4811 8.77838 23.4948C8.73178 23.5766 8.68587 23.6588 8.64068 23.7413Z" fill="#F84D38"/>
<path d="M8.9763 29.1077C8.97606 29.1077 8.97583 29.1077 8.97583 29.1077C9.0058 29.0732 9.03601 29.0385 9.06645 29.0037H9.06668C9.03648 29.0387 9.00603 29.0734 8.9763 29.1077Z" fill="#FDD2D4"/>
<path d="M8.14332 28.9595C8.08471 28.9417 8.0254 28.9227 7.96514 28.9037C7.83827 28.8558 7.70339 28.8099 7.57464 28.7467C7.44659 28.682 7.31454 28.6182 7.19049 28.5393C7.15283 28.5172 7.11611 28.4939 7.0801 28.4694C7.12882 28.3727 7.17849 28.2767 7.2291 28.1808C7.27052 28.2079 7.31266 28.2342 7.35644 28.2582C7.46966 28.334 7.59159 28.3962 7.71022 28.4602C7.8305 28.5196 7.94937 28.58 8.06659 28.6334C8.15251 28.6656 8.23395 28.7043 8.31421 28.7382C8.2556 28.8111 8.1984 28.8847 8.14332 28.9595ZM6.49211 27.9775C6.40243 27.8871 6.32875 27.7863 6.25508 27.6949C6.22777 27.6545 6.20235 27.6163 6.1767 27.5773C6.21106 27.5049 6.24519 27.4316 6.28027 27.3585C6.3297 27.416 6.3836 27.4734 6.43679 27.5357C6.49282 27.5889 6.54931 27.6447 6.60886 27.7002C6.56955 27.7926 6.53071 27.8849 6.49211 27.9775Z" fill="#F84D38"/>
<path d="M10.2018 27.7834H10.2008C10.2308 27.7528 10.2612 27.7224 10.2914 27.6918C10.2917 27.6921 10.2919 27.6921 10.2919 27.6921C10.2617 27.7222 10.2317 27.7531 10.2018 27.7834Z" fill="#FDD2D4"/>
<path d="M9.38756 27.516C9.32071 27.4852 9.25292 27.4516 9.18324 27.4181C9.06108 27.3503 8.93091 27.2825 8.80875 27.199C8.68729 27.1132 8.5616 27.0292 8.44649 26.9299C8.32833 26.8349 8.22288 26.7243 8.11531 26.6201C8.10472 26.6084 8.09413 26.5966 8.08354 26.5848C8.13438 26.4876 8.18522 26.3902 8.23606 26.2931C8.26925 26.3265 8.30267 26.3602 8.33469 26.3953C8.43778 26.4891 8.53712 26.5894 8.64986 26.6752C8.75532 26.7697 8.87065 26.8517 8.98246 26.9352C9.09686 27.0141 9.2096 27.0934 9.32188 27.1656C9.4045 27.2108 9.48194 27.2623 9.55868 27.3087C9.50289 27.3784 9.44593 27.4475 9.38756 27.516ZM7.52638 25.7488C7.5019 25.6952 7.48001 25.6423 7.46307 25.5896C7.41952 25.483 7.39716 25.3787 7.37621 25.2878C7.36656 25.25 7.36209 25.2146 7.35785 25.18C7.37715 25.1427 7.39739 25.1059 7.41693 25.0679C7.43835 25.1216 7.46071 25.1812 7.49225 25.2483C7.53156 25.3277 7.57346 25.4164 7.62948 25.5083C7.63325 25.5155 7.63725 25.5227 7.64125 25.5299C7.60265 25.6028 7.56428 25.6757 7.52638 25.7488Z" fill="#F84D38"/>
<path d="M7.94674 30.3626C7.94627 30.3626 7.94604 30.3626 7.94557 30.3626C7.99123 30.3034 8.03784 30.2435 8.08538 30.1832C8.03807 30.2438 7.99217 30.3034 7.94674 30.3626ZM5.44909 29.1127C5.44909 29.1127 5.44909 29.1125 5.44885 29.1125C5.45897 29.0918 5.4691 29.0709 5.47922 29.0499C5.46933 29.0709 5.45921 29.0918 5.44909 29.1127Z" fill="#FDD2D4"/>
<path d="M7.32204 30.2599C7.19399 30.2234 7.05888 30.1897 6.92778 30.1387C6.79455 30.0853 6.65779 30.0346 6.52739 29.9665C6.51727 29.9615 6.50714 29.9566 6.49726 29.9516C6.53445 29.8251 6.5634 29.714 6.58317 29.6534C6.58529 29.6466 6.58741 29.6399 6.58953 29.6332C6.61566 29.6464 6.64226 29.6591 6.66909 29.6709C6.78866 29.7371 6.91506 29.7888 7.03864 29.8419C7.16339 29.8905 7.28744 29.9405 7.40843 29.9836C7.43126 29.9901 7.45385 29.9968 7.47622 30.004C7.4249 30.0894 7.37359 30.1748 7.32204 30.2599ZM5.89632 29.5617C5.86667 29.5375 5.83772 29.5129 5.80971 29.4874C5.70143 29.4016 5.61269 29.2984 5.52465 29.2068C5.49876 29.175 5.47428 29.1438 5.4491 29.1127C5.45922 29.0918 5.46934 29.0709 5.47923 29.05C5.50347 28.9999 5.52748 28.9497 5.55172 28.8989C5.59739 28.9425 5.64517 28.9853 5.69295 29.0324C5.78522 29.1065 5.87867 29.1856 5.98295 29.2597C5.95023 29.3607 5.92057 29.4619 5.89632 29.5617Z" fill="#F84D38"/>
<path d="M6.9217 31.6094C6.77623 31.6091 6.62653 31.5964 6.47729 31.5716C6.60511 31.3381 6.75905 31.1231 6.86544 30.9708C7.02503 30.7419 7.17474 30.5023 7.32209 30.2599C7.32467 30.2606 7.32726 30.2613 7.33009 30.2621C7.46261 30.2904 7.59042 30.3212 7.71353 30.3364C7.7945 30.3458 7.871 30.3544 7.94562 30.3626C7.58007 30.8354 7.27713 31.2618 7.05563 31.6055C7.01161 31.6079 6.96689 31.6094 6.9217 31.6094ZM8.08543 30.1832C7.98469 30.1603 7.87806 30.1231 7.76319 30.0959C7.66998 30.0716 7.57512 30.0353 7.47626 30.004C7.64574 29.7217 7.81545 29.4388 7.99669 29.1673C8.04377 29.0971 8.09273 29.0278 8.14333 28.9595C8.21042 28.9797 8.27633 28.9977 8.34106 29.0112C8.46275 29.0374 8.57668 29.0641 8.68401 29.0764C8.79111 29.0901 8.88927 29.0992 8.97589 29.1077C8.65341 29.4788 8.35447 29.8412 8.08543 30.1832ZM9.06627 29.004C9.04415 28.9975 9.02249 28.9915 8.99848 28.9836C8.91728 28.9554 8.82642 28.9237 8.72638 28.8929C8.62728 28.8609 8.52325 28.8145 8.41097 28.7765C8.37896 28.7649 8.34671 28.752 8.31422 28.7382C8.65223 28.3188 9.03944 27.9261 9.38757 27.516C9.44265 27.5415 9.49726 27.5651 9.55163 27.5848C9.67168 27.63 9.78396 27.6747 9.89129 27.7041C9.99839 27.7344 10.0973 27.7589 10.1846 27.7806L10.2008 27.7834C9.80161 28.1877 9.42053 28.6 9.06627 29.004ZM10.2912 27.6921C10.2691 27.6822 10.2481 27.6721 10.2239 27.6613C10.145 27.6199 10.0565 27.5742 9.95908 27.5283C9.86234 27.4809 9.76254 27.4181 9.65332 27.3623C9.62154 27.346 9.59023 27.3277 9.55869 27.3087C9.55987 27.307 9.56128 27.3053 9.5627 27.3036C9.89718 26.8835 10.2787 26.5049 10.6834 26.1516C10.6972 26.1598 10.7111 26.1677 10.725 26.1757C10.8592 26.2505 10.9837 26.3243 11.1052 26.3799C11.2259 26.4366 11.3377 26.4852 11.4371 26.5283C11.462 26.5386 11.4844 26.5461 11.5081 26.5547C11.0913 26.915 10.6829 27.2993 10.2912 27.6921ZM11.5969 26.4785C11.5642 26.4578 11.5312 26.4371 11.495 26.4143C11.4076 26.3532 11.3095 26.2844 11.2012 26.2132C11.0988 26.1456 10.9964 26.0605 10.8825 25.9811C11.0393 25.8493 11.1988 25.7209 11.3598 25.5949C11.7299 25.3043 12.1112 25.0283 12.5043 24.7714C12.5655 25.1733 12.561 25.5261 12.4916 25.7649C12.1912 25.9869 11.892 26.2264 11.5969 26.4785Z" fill="#F84D38"/>
<path d="M11.5081 26.5547C11.4844 26.5461 11.462 26.5386 11.4371 26.5283C11.3377 26.4852 11.2259 26.4366 11.1052 26.3799C10.9837 26.3243 10.8592 26.2505 10.725 26.1757C10.7111 26.1678 10.6972 26.1598 10.6833 26.1516C10.749 26.0942 10.8156 26.0374 10.8825 25.9811C10.9964 26.0605 11.0988 26.1456 11.2012 26.2132C11.3095 26.2844 11.4076 26.3532 11.495 26.4143C11.5312 26.4371 11.5642 26.4578 11.5969 26.4785C11.5672 26.5037 11.5378 26.529 11.5081 26.5547Z" fill="#F63F2F"/>
<path d="M8.97586 29.1077C8.88924 29.0992 8.79109 29.0901 8.68399 29.0764C8.57665 29.0641 8.46273 29.0374 8.34103 29.0112C8.2763 28.9978 8.21039 28.9797 8.14331 28.9595C8.19839 28.8847 8.25559 28.8111 8.3142 28.7383C8.34668 28.752 8.37893 28.765 8.41094 28.7765C8.52322 28.8145 8.62726 28.8609 8.72636 28.8929C8.82639 28.9237 8.91725 28.9554 8.99846 28.9836C9.02247 28.9915 9.04412 28.9975 9.06625 29.004C9.03589 29.0386 9.00576 29.0733 8.97586 29.1077Z" fill="#F63F2F"/>
<path d="M10.2008 27.7834L10.1846 27.7806C10.0973 27.7589 9.99839 27.7344 9.89129 27.7041C9.78396 27.6747 9.67168 27.63 9.55163 27.5848C9.49726 27.5651 9.44265 27.5415 9.38757 27.516C9.44595 27.4475 9.50291 27.3784 9.55869 27.3087C9.59024 27.3277 9.62154 27.346 9.65332 27.3623C9.76254 27.4181 9.86234 27.4809 9.95908 27.5283C10.0565 27.5742 10.145 27.6199 10.2239 27.6613C10.2481 27.6721 10.2691 27.6822 10.2912 27.6921C10.2611 27.7226 10.2307 27.7529 10.2008 27.7834Z" fill="#F63F2F"/>
<path d="M7.94561 30.3626C7.871 30.3544 7.7945 30.3458 7.71353 30.3364C7.59042 30.3212 7.46261 30.2904 7.33008 30.2621C7.32726 30.2613 7.32467 30.2606 7.32208 30.2599C7.37363 30.1748 7.42494 30.0894 7.47626 30.004C7.57512 30.0353 7.66998 30.0716 7.76319 30.0959C7.87806 30.1231 7.98469 30.1603 8.08543 30.1832C8.03788 30.2435 7.99128 30.3034 7.94561 30.3626Z" fill="#F63F2F"/>
<path d="M6.07312 30.6471C5.86692 30.6469 5.83444 30.2825 5.82832 30.1007C5.8229 29.9357 5.85021 29.7515 5.89634 29.5617C5.9759 29.6264 6.06111 29.6873 6.14773 29.7476C6.26236 29.8164 6.37629 29.8907 6.49728 29.9516C6.41536 30.2296 6.29414 30.5819 6.14608 30.6336C6.11972 30.6428 6.09548 30.6471 6.07312 30.6471ZM6.58955 29.6332C6.49445 29.5851 6.40336 29.5295 6.31132 29.4783C6.2014 29.4025 6.08371 29.3402 5.9839 29.2604C5.98343 29.2601 5.9832 29.2599 5.98297 29.2597C6.07618 28.9723 6.19528 28.6877 6.29485 28.4504C6.36076 28.2926 6.42619 28.1348 6.4921 27.9775C6.49963 27.9852 6.50716 27.9929 6.51517 28.0004C6.61026 28.1016 6.71854 28.1954 6.83011 28.2883C6.91249 28.3482 6.99464 28.4114 7.08009 28.4694C6.89319 28.8414 6.72348 29.2219 6.58955 29.6332ZM7.22908 28.1808C7.15658 28.1331 7.08644 28.0824 7.01559 28.0343C6.91249 27.9494 6.80068 27.8765 6.70771 27.7885C6.67358 27.7594 6.64062 27.7298 6.60885 27.7002C6.76938 27.321 6.93391 26.9451 7.11116 26.5773C7.24344 26.3029 7.38255 26.0254 7.52637 25.7488C7.55297 25.8075 7.5831 25.8674 7.61393 25.9294C7.68055 26.0422 7.74693 26.1666 7.8359 26.2786C7.90911 26.3847 7.99408 26.4847 8.08352 26.5848C7.96254 26.8166 7.84178 27.0473 7.71962 27.2748C7.55415 27.5831 7.38726 27.8811 7.22908 28.1808ZM8.23605 26.2931C8.17273 26.2291 8.10942 26.1663 8.05551 26.0975C7.96748 25.9982 7.89145 25.8955 7.81613 25.7988C7.75611 25.7036 7.69043 25.6175 7.64124 25.5299C7.84814 25.1394 8.06399 24.7524 8.2836 24.3799C8.40694 24.1709 8.52275 23.9556 8.64067 23.7413C8.65998 23.7993 8.68116 23.8585 8.70234 23.9195C8.76496 24.0598 8.8238 24.2125 8.9116 24.3565C8.97209 24.4722 9.04436 24.585 9.12062 24.6976C8.80638 25.2132 8.51851 25.7536 8.23605 26.2931ZM9.30257 24.4066C9.25479 24.3426 9.20866 24.2784 9.16911 24.2115C9.08014 24.0804 9.00811 23.9474 8.9342 23.8221C8.88124 23.7072 8.82122 23.6002 8.77838 23.4948C8.95986 23.1762 9.15475 22.8666 9.39484 22.5922C9.55255 22.4118 9.9367 22.1165 10.2288 22.1165C10.4006 22.1165 10.5407 22.2187 10.5838 22.5071C10.6344 22.8471 10.153 23.2536 9.95341 23.4989C9.72132 23.7856 9.50594 24.0903 9.30257 24.4066Z" fill="#FB684E"/>
<path d="M9.12063 24.6976C9.04437 24.585 8.97211 24.4722 8.91161 24.3565C8.82381 24.2125 8.76497 24.0598 8.70236 23.9195C8.68117 23.8585 8.65999 23.7993 8.64069 23.7413C8.68588 23.6588 8.73178 23.5766 8.77839 23.4948C8.82123 23.6002 8.88125 23.7072 8.93421 23.8221C9.00812 23.9474 9.08015 24.0804 9.16912 24.2115C9.20867 24.2784 9.2548 24.3426 9.30259 24.4066C9.24092 24.5025 9.18042 24.5997 9.12063 24.6976Z" fill="#F95943"/>
<path d="M7.08005 28.4694C6.99461 28.4114 6.91246 28.3481 6.83008 28.2883C6.7185 28.1954 6.61023 28.1016 6.51513 28.0004C6.50713 27.9929 6.4996 27.9852 6.49207 27.9775C6.53067 27.8849 6.56951 27.7926 6.60881 27.7002C6.64059 27.7298 6.67354 27.7594 6.70767 27.7885C6.80065 27.8765 6.91246 27.9494 7.01556 28.0343C7.08641 28.0824 7.15655 28.1331 7.22905 28.1808C7.17844 28.2767 7.12878 28.3727 7.08005 28.4694Z" fill="#F95943"/>
<path d="M8.08351 26.5848C7.99407 26.4847 7.9091 26.3847 7.83589 26.2786C7.74692 26.1666 7.68054 26.0422 7.61393 25.9294C7.58309 25.8674 7.55297 25.8075 7.52637 25.7488C7.56426 25.6757 7.60263 25.6028 7.64123 25.53C7.69043 25.6175 7.7561 25.7036 7.81612 25.7988C7.89144 25.8955 7.96747 25.9982 8.0555 26.0975C8.1094 26.1663 8.17272 26.2291 8.23604 26.2931C8.1852 26.3902 8.13436 26.4876 8.08351 26.5848Z" fill="#F95943"/>
<path d="M6.49729 29.9516C6.37631 29.8907 6.26238 29.8164 6.14775 29.7476C6.06113 29.6873 5.97592 29.6264 5.89636 29.5617C5.92061 29.4619 5.95027 29.3607 5.98298 29.2597C5.98322 29.2599 5.98345 29.2601 5.98392 29.2604C6.08373 29.3402 6.20142 29.4025 6.31134 29.4783C6.40338 29.5295 6.49447 29.5851 6.58956 29.6332C6.58745 29.6399 6.58533 29.6466 6.58321 29.6534C6.56344 29.714 6.53448 29.8251 6.49729 29.9516Z" fill="#F95943"/>
<path d="M36.4804 13.2891C36.8615 12.2869 37.8524 10.7306 38.7116 9.66016C36.7471 10.0577 34.2153 10.558 32.8819 12.1407C32.0841 13.0883 32.4408 13.8259 33.3771 14.4567C35.1578 15.6566 35.9101 14.791 36.4804 13.2891Z" fill="#FA5E43"/>
<path d="M41 8.51296C39.3984 10.0385 36.4051 13.031 35.3713 13.4324C34.699 12.621 34.4968 10.8497 34.4968 10.8497C33.6377 11.2181 32.823 11.8682 32.099 12.5046C30.9517 13.5125 30.251 15.5736 31.3483 16.9135C32.2708 18.0397 34.5124 17.3461 35.6358 16.8007C38.6462 15.3408 40.7072 11.8487 41 8.51296Z" fill="#DB3625"/>
<path d="M34.5039 10.9055C34.5018 10.8882 34.4999 10.8747 34.4987 10.8653C34.5001 10.8749 34.5018 10.8889 34.5041 10.9052C34.5041 10.9055 34.5041 10.9055 34.5039 10.9055ZM37.8169 10.8824C38.1062 10.4531 38.4091 10.0382 38.6975 9.67747C38.4094 10.038 38.1071 10.4531 37.8178 10.8819L37.8169 10.8824ZM38.4607 9.71089C38.5452 9.69382 38.629 9.67698 38.7116 9.66015C38.6287 9.67698 38.5452 9.69382 38.4607 9.71089ZM38.6984 9.67651C38.7003 9.67434 38.7019 9.67217 38.7038 9.66977C38.7019 9.67217 38.7003 9.67434 38.6984 9.67651ZM38.7052 9.66784C38.7074 9.66519 38.7095 9.66279 38.7116 9.66015C38.7095 9.66279 38.7074 9.66519 38.7052 9.66784Z" fill="#FDD2D4"/>
<path d="M34.7348 12.0385C34.5931 11.525 34.5246 11.0616 34.5039 10.9055C34.5041 10.9055 34.5041 10.9055 34.5041 10.9053C34.5044 10.906 34.5044 10.9067 34.5046 10.9074C35.7227 10.286 37.1899 9.96898 38.4607 9.71092C38.5452 9.69384 38.6288 9.67701 38.7116 9.66017C38.7095 9.66282 38.7074 9.66522 38.7053 9.66787C38.7048 9.66859 38.7043 9.66907 38.7038 9.66979C38.702 9.6722 38.7003 9.67437 38.6984 9.67653C38.6982 9.67701 38.698 9.67725 38.6975 9.67749C38.4091 10.0382 38.1062 10.4531 37.8169 10.8824L37.8141 10.8838C37.2657 11.1099 36.6275 11.1667 36.092 11.3889C35.6257 11.582 35.1757 11.8067 34.7348 12.0385Z" fill="#F84D38"/>
<path d="M30.8048 15.494C30.8008 15.4329 30.799 15.3716 30.799 15.31C30.799 14.2547 31.3549 13.1583 32.099 12.5046C32.823 11.8682 33.6377 11.2181 34.4968 10.8497C34.4971 10.8502 34.4975 10.8557 34.4987 10.8653C34.4999 10.8747 34.5018 10.8882 34.5039 10.9055C34.5246 11.0616 34.5931 11.525 34.7348 12.0385C34.6237 12.0969 34.5133 12.1556 34.4034 12.2143C33.1794 12.8687 32.735 14.0979 32.1816 15.3574C32.1717 15.38 32.1618 15.4026 32.1519 15.4252C32.0335 15.387 31.9008 15.3728 31.7645 15.3728C31.4498 15.3728 31.1174 15.4488 30.9068 15.4779C30.8733 15.4827 30.8394 15.488 30.8048 15.494Z" fill="#D92C1F"/>
<path d="M35.2061 16.4356C35.0968 16.4356 34.9879 16.4226 34.8801 16.3933C33.8764 16.1208 34.9069 15.4844 35.3494 15.1758C36.3679 14.4666 37.3838 13.7913 38.2519 12.8935C38.8077 12.3187 39.2591 11.7364 39.7414 11.1118C39.43 12.019 39.3189 12.8584 38.8138 13.6965C38.2333 14.66 37.4321 15.4503 36.4677 16.0068C36.0883 16.2254 35.6446 16.4356 35.2061 16.4356Z" fill="#E24331"/>
<path d="M31.901 16.9779C32.2887 16.578 32.8268 16.0782 32.4483 15.6184C32.1108 15.2081 31.2985 15.4236 30.9068 15.4779C29.5863 15.6617 27.3144 17.0065 25.5026 16.0917C24.731 15.7025 23.5317 19.5393 24.0345 19.6978C26.9387 20.6146 30.5723 18.3481 31.901 16.9779Z" fill="#FA5E43"/>
<path d="M26.265 17.3738C26.1923 17.3738 26.1195 17.3726 26.0468 17.3699C26.2544 17.0503 26.4488 16.7254 26.6284 16.3964C26.7264 16.4041 26.8245 16.4077 26.9231 16.4077C28.0664 16.4074 29.2471 15.926 30.1811 15.6487C30.1568 15.7956 30.131 15.9438 30.1065 16.0941C30.0648 16.3379 30.0107 16.5849 29.9619 16.8355C29.9591 16.849 29.9561 16.8627 29.9532 16.8764C29.152 17.1289 28.2453 17.2766 27.4137 17.3211C27.0599 17.3399 26.6623 17.3738 26.265 17.3738ZM30.2249 16.7845C30.2698 16.5676 30.3176 16.354 30.356 16.1407C30.3887 15.949 30.424 15.759 30.4556 15.5717C30.6156 15.5301 30.7667 15.4974 30.9068 15.4779C31.1172 15.449 31.4486 15.3735 31.7626 15.3735C31.933 15.3735 32.0983 15.3956 32.2362 15.4594C32.1673 15.5301 32.1011 15.5941 32.0437 15.6487C31.5039 16.1607 30.9176 16.5313 30.2249 16.7845Z" fill="#F84D38"/>
<path d="M28.5249 3.517C29.5665 3.36332 31.2735 2.72671 32.4876 2.11223C31.6666 3.97877 30.6198 6.38667 28.8104 7.35806C27.7277 7.93935 27.1042 7.41843 26.7134 6.34434C25.9701 4.30176 26.9646 3.74716 28.5249 3.517Z" fill="#FA5E43"/>
<path d="M34.0967 0.0924854C32.2812 1.34334 28.7542 3.65024 28.1389 4.58892C28.761 5.44102 30.4054 6.04059 30.4054 6.04059C29.8612 6.81356 29.0571 7.47807 28.2872 8.05576C27.0684 8.97135 24.9452 9.20512 23.9143 7.81117C23.0476 6.6392 24.2137 4.56415 24.9864 3.56774C27.0562 0.899371 30.8496 -0.366874 34.0967 0.0924854Z" fill="#DB3625"/>
<path d="M30.4052 6.0406C30.405 6.0406 30.4031 6.03988 30.3998 6.03868C30.4031 6.03988 30.405 6.0406 30.4052 6.0406ZM31.1596 2.71229C31.1598 2.71181 31.1601 2.71157 31.1605 2.71109C31.5694 2.54514 31.9698 2.36765 32.3325 2.18944C31.9695 2.36789 31.5689 2.5461 31.1596 2.71229Z" fill="#FDD2D4"/>
<path d="M30.352 6.0204C30.1476 5.94152 29.3975 5.63631 28.7808 5.19354C28.8373 5.13919 28.8947 5.08268 28.9533 5.024C29.5721 4.40639 30.2477 3.87873 30.807 3.18199C30.9298 3.02927 31.0449 2.87077 31.1596 2.71228C31.5689 2.5461 31.9695 2.36789 32.3325 2.18944C32.3852 2.1637 32.4367 2.13797 32.4876 2.11224C31.9337 3.37151 31.2761 4.87561 30.352 6.0204Z" fill="#F84D38"/>
<path d="M26.5973 8.7549C26.2341 8.60242 25.8354 8.52089 25.4218 8.47664C25.3743 8.47183 25.3265 8.4675 25.2787 8.46365C25.5216 8.12046 25.6748 7.40015 25.4034 7.01655C25.4395 7.00164 25.4766 6.98673 25.5155 6.9723C26.1315 6.74142 26.7491 6.49707 27.3446 6.21424C27.9416 5.93021 28.3373 5.62115 28.7807 5.19354C29.3974 5.6363 30.1476 5.94151 30.3519 6.02039C30.3517 6.02039 30.3517 6.02063 30.3517 6.02063C30.3752 6.02953 30.3917 6.03578 30.3997 6.03867C30.403 6.03987 30.4049 6.04059 30.4051 6.04059C30.4053 6.04059 30.4053 6.04059 30.4053 6.04059C29.8611 6.81357 29.0571 7.47808 28.2871 8.05576C27.8192 8.4069 27.2185 8.65798 26.5973 8.7549Z" fill="#D92C1F"/>
<path d="M25.5106 5.45834C25.3661 5.45834 25.254 5.32991 25.2136 4.97806C25.1481 4.41239 25.4814 3.86814 25.8138 3.42778C26.4896 2.53094 27.369 1.83301 28.3849 1.38254C29.2687 0.991007 30.0971 0.997501 31.0205 0.811352C30.3466 1.21035 29.7188 1.58481 29.0828 2.06533C28.0899 2.81546 27.2913 3.74717 26.4592 4.67671C26.2184 4.94583 25.7994 5.45834 25.5106 5.45834Z" fill="#E24331"/>
<path d="M23.9771 7.24647C24.4455 6.95065 25.0431 6.52737 25.3969 7.00741C25.7121 7.43599 25.4786 8.3042 25.1839 8.57332C24.0366 9.62167 24.115 11.798 23.4701 12.9365C23.0398 13.6972 19.2671 13.551 19.441 13.0435C20.0735 11.1907 22.3718 8.26115 23.9771 7.24647Z" fill="#FA5E43"/>
<path d="M22.7663 11.7956C22.8814 11.4125 23.0306 11.0344 23.1702 10.6693C23.4129 10.0353 23.6742 9.37973 24.007 8.77174C24.0214 8.77054 24.0357 8.76934 24.0503 8.76814C24.2848 8.75202 24.5154 8.73614 24.7416 8.72075C24.7729 8.72003 24.8045 8.71955 24.8358 8.71955C24.9019 8.71955 24.9681 8.72124 25.034 8.72412C24.3547 9.47377 24.1609 10.6633 23.9084 11.6876C23.5216 11.7078 23.1408 11.7444 22.7663 11.7956ZM24.1671 8.49276C24.3919 8.11974 24.6479 7.76981 24.949 7.46052C25.0956 7.30997 25.2552 7.17385 25.4224 7.04854C25.6653 7.43864 25.5146 8.1296 25.2785 8.46366C25.1463 8.45307 25.0123 8.44706 24.8751 8.44706C24.8278 8.44706 24.78 8.44778 24.732 8.44922C24.5465 8.46365 24.3582 8.47809 24.1671 8.49276Z" fill="#F84D38"/>
<path d="M23.949 11.6854C26.6519 11.5524 28.4632 12.4834 27.0472 15.5638C24.413 21.2942 17.1533 25.9814 12.4732 25.8217C12.8335 24.8318 11.8793 21.4246 9.53558 21.5061C9.96869 20.2317 15.536 12.1001 23.949 11.6854Z" fill="#DB3625"/>
<path d="M18.9415 24.5331C18.4413 25.0689 16.4733 28.0805 15.9176 28.4085C15.8997 28.4066 15.8681 28.4359 15.8583 28.4655C15.8446 28.5054 15.871 28.5454 16.0247 28.5067C17.2595 28.3686 19.4156 24.7647 19.5578 24.3525C18.7182 23.8233 17.7747 23.6759 17.3376 24.2175C17.142 24.46 17.4261 24.4451 17.8432 24.4299C18.1836 24.4176 18.6125 24.4054 18.9415 24.5331Z" fill="#ED5349"/>
<path d="M15.9924 28.5141C16.0026 28.5119 16.0131 28.5095 16.0247 28.5066C17.2595 28.3686 19.4156 24.7647 19.5578 24.3524C19.4156 24.7647 17.2595 28.3686 16.0247 28.5066C16.0129 28.5098 16.0023 28.5122 15.9924 28.5141ZM19.5578 24.3524C19.4502 24.2846 19.3412 24.2233 19.2318 24.1687C19.3412 24.2233 19.4502 24.2846 19.5578 24.3524Z" fill="#FDD2D4"/>
<path d="M15.9244 28.5213C17.178 28.0843 19.1362 24.8051 19.2713 24.4126C18.7977 24.1139 18.2914 23.9376 17.8611 23.9376C17.818 23.9376 17.7757 23.9395 17.7342 23.9429C17.8599 23.8986 17.9995 23.8777 18.148 23.8777C18.4804 23.8777 18.8587 23.983 19.2317 24.1687C19.3412 24.2233 19.4502 24.2846 19.5578 24.3524C19.4156 24.7647 17.2595 28.3686 16.0247 28.5066C16.0131 28.5095 16.0025 28.5119 15.9924 28.5141C15.9649 28.5194 15.9434 28.5208 15.9244 28.5213Z" fill="#EB443D"/>
<path d="M20.4647 23.2072C20.1309 23.818 19.0263 27.048 18.5941 27.4821C18.5541 27.4888 18.4856 27.6723 18.7148 27.5468C19.8122 27.1221 20.9517 23.3043 20.9865 22.8931C20.0965 22.6122 19.1988 22.705 18.9243 23.3048C18.7892 23.6011 19.1136 23.472 19.5535 23.3426C19.8397 23.2584 20.1749 23.1742 20.4647 23.2072Z" fill="#ED5349"/>
<path d="M20.7373 23.8438C20.8863 23.3669 20.9772 23.0047 20.9866 22.8931C20.9772 23.0047 20.8863 23.3669 20.7373 23.8438ZM20.9866 22.8931C20.8785 22.8589 20.7705 22.8305 20.6634 22.8077C20.6639 22.8075 20.6632 22.8079 20.6636 22.8075C20.7705 22.8303 20.8785 22.8589 20.9866 22.8931Z" fill="#FDD2D4"/>
<path d="M20.6634 22.8077C20.5953 22.793 20.5275 22.7808 20.4604 22.7709C20.5275 22.7808 20.5953 22.793 20.6636 22.8075C20.6631 22.8079 20.6638 22.8075 20.6634 22.8077Z" fill="#D92C1F"/>
<path d="M18.8876 27.4508C19.8734 26.5215 20.8008 23.3892 20.8321 23.0191C20.5177 22.9193 20.2023 22.8666 19.9139 22.8666C19.5933 22.8666 19.3059 22.9316 19.0901 23.0694C19.3125 22.8455 19.6646 22.7413 20.07 22.7413C20.1959 22.7413 20.3268 22.7514 20.4605 22.7709C20.5275 22.7808 20.5953 22.793 20.6634 22.8077C20.7705 22.8305 20.8785 22.8589 20.9865 22.8931C20.9771 23.0047 20.8863 23.3669 20.7373 23.8438C20.3656 25.0326 19.6307 26.9354 18.8876 27.4508Z" fill="#EB443D"/>
<path d="M22.0762 22.008C21.8351 22.6487 21.2022 25.9446 20.8409 26.4275C20.8037 26.4395 20.7622 26.6274 20.9673 26.4725C21.9759 25.9042 22.5627 22.0333 22.5403 21.6285C21.6372 21.4821 20.7778 21.6995 20.593 22.3224C20.4428 22.8291 21.3505 22.0316 22.0762 22.008Z" fill="#ED5349"/>
<path d="M20.8547 26.5331C20.8547 26.5328 20.8549 26.5328 20.8551 26.5326C20.8794 26.5288 20.9149 26.5119 20.9658 26.4737C20.9142 26.5122 20.8789 26.5292 20.8547 26.5331ZM22.5403 21.6285C22.4426 21.6129 22.3454 21.6011 22.2496 21.5939C22.3454 21.6011 22.4426 21.6126 22.5403 21.6285Z" fill="#FDD2D4"/>
<path d="M21.6326 21.6107C21.7534 21.5934 21.8803 21.5847 22.0111 21.5847C22.0895 21.5847 22.1691 21.5879 22.2496 21.5939C22.1688 21.5879 22.0893 21.5847 22.0111 21.5847C21.8803 21.5847 21.7534 21.5934 21.6326 21.6107Z" fill="#D92C1F"/>
<path d="M20.8552 26.5326C21.775 25.6997 22.3054 22.1812 22.2844 21.7961C22.1057 21.7673 21.929 21.7526 21.759 21.7526C21.4128 21.7526 21.0943 21.813 20.8434 21.9356C21.0362 21.7641 21.313 21.6566 21.6326 21.6107C21.7534 21.5934 21.8803 21.5847 22.0111 21.5847C22.0893 21.5847 22.1688 21.5879 22.2496 21.5939C22.3454 21.6011 22.4426 21.6129 22.5403 21.6285C22.5405 21.6362 22.5407 21.6449 22.5407 21.6547C22.5407 22.1759 21.9572 25.9147 20.9672 26.4725C20.9667 26.4729 20.9663 26.4732 20.9658 26.4737C20.9149 26.5119 20.8794 26.5287 20.8552 26.5326Z" fill="#EB443D"/>
<path d="M14.0992 21.4909C14.0992 21.4909 14.2271 21.3488 14.4511 21.0992C14.6745 20.8495 14.9815 20.4815 15.3677 20.0554C15.5614 19.8425 15.7733 19.6141 16.0035 19.3781C16.1165 19.2576 16.2389 19.1415 16.3622 19.0193C16.4849 18.8969 16.6127 18.7752 16.7475 18.6561C16.8819 18.5368 17.0149 18.4113 17.1557 18.2915C17.2972 18.1727 17.4407 18.0517 17.585 17.9308C17.7284 17.8081 17.8821 17.6965 18.0313 17.5777C18.1817 17.4606 18.3319 17.3416 18.4889 17.2321C18.6452 17.1222 18.8017 17.0118 18.9573 16.9019C19.1141 16.7939 19.2748 16.6939 19.4321 16.5905C19.7449 16.3812 20.0636 16.1941 20.3715 16.0116C20.6754 15.8221 20.9842 15.6672 21.2725 15.5118C21.5597 15.3536 21.8375 15.2182 22.0947 15.0943C22.3515 14.9702 22.585 14.8516 22.7981 14.7607C23.0106 14.6684 23.1959 14.5878 23.3486 14.5214C23.6539 14.3911 23.8286 14.3168 23.8286 14.3168C23.8286 14.3168 23.6591 14.4016 23.3613 14.551C23.2121 14.6244 23.0313 14.7136 22.8237 14.816C22.6159 14.9175 22.3887 15.0472 22.135 15.177C21.8827 15.3088 21.6091 15.4514 21.3281 15.6174C21.0454 15.7809 20.7436 15.9462 20.4419 16.1352C20.1373 16.3189 19.8216 16.5084 19.5131 16.7199C19.3582 16.8237 19.1986 16.9248 19.0442 17.0339C18.8907 17.1446 18.7361 17.2552 18.5821 17.3658C18.4253 17.4731 18.2752 17.5897 18.1248 17.7049C17.9758 17.8209 17.8218 17.9308 17.6778 18.0506C17.5335 18.1696 17.3904 18.2877 17.2484 18.4046C17.1077 18.5224 16.9744 18.6453 16.8403 18.7627C16.7047 18.8788 16.5783 19.0008 16.4517 19.1174C16.3262 19.2348 16.2012 19.3476 16.0854 19.464C15.8496 19.6915 15.6321 19.913 15.4329 20.1189C15.0361 20.5337 14.7054 20.8791 14.4733 21.1213C14.3582 21.243 14.2609 21.3317 14.1976 21.3952C14.1334 21.4575 14.0992 21.4909 14.0992 21.4909Z" fill="#ED5349"/>
<path d="M12.955 19.5349C12.5003 19.5349 12.1768 19.3457 12.3303 18.7819C12.5906 17.8262 13.4966 16.9837 14.1703 16.3416C15.3783 15.19 16.6498 14.5479 18.1252 13.7886C19.0924 13.291 20.0744 12.9582 21.1393 12.7273C21.7035 12.6049 22.3106 12.3264 22.8983 12.3264C22.9324 12.3264 22.9668 12.3273 23.0009 12.3293C23.7445 12.3725 23.9196 12.9113 23.33 13.3697C22.3155 14.1592 20.9402 14.3714 19.8362 15.0027C18.925 15.5241 17.9732 16.1249 17.1274 16.7444C16.2153 17.4127 15.5113 18.3173 14.6123 19.0042C14.3111 19.2343 13.5284 19.5352 12.955 19.5349Z" fill="#E24331"/>
<path d="M15.7255 23.1663C15.6723 23.1663 15.6193 23.1644 15.5668 23.1608C14.2758 23.0691 15.5635 21.2716 16.1252 20.8892C17.0589 20.2533 18.1292 19.8777 19.0503 19.2225C19.9045 18.6153 20.7766 17.8998 21.5623 17.1963C22.5137 16.3447 23.1692 15.0909 24.2365 14.3783C24.4182 14.2569 24.5841 14.2008 24.723 14.2008C25.058 14.2008 25.234 14.5265 25.0864 15.0431C24.9127 15.6516 24.4156 16.1708 24.0969 16.7025C23.528 17.6506 22.8927 18.4852 22.11 19.2502C20.9166 20.4173 19.8993 21.4267 18.4336 22.205C17.6601 22.6155 16.6524 23.1663 15.7255 23.1663Z" fill="#E24331"/>
<path d="M25.1545 12.5255C25.1545 12.5255 25.1921 12.5214 25.2578 12.5139C25.323 12.5091 25.4212 12.5067 25.5349 12.5209C25.6497 12.5317 25.782 12.5604 25.9197 12.6082C25.988 12.6347 26.0595 12.6599 26.1273 12.6994C26.1968 12.733 26.2615 12.7821 26.3269 12.8288L26.4166 12.9117C26.4451 12.9404 26.4693 12.9747 26.495 13.0065C26.523 13.0361 26.5404 13.0743 26.559 13.1109C26.5781 13.1465 26.5967 13.1823 26.6049 13.2217C26.6143 13.2605 26.6289 13.2973 26.6325 13.3353C26.6339 13.373 26.6353 13.4101 26.6362 13.4466C26.6383 13.518 26.6153 13.583 26.6059 13.6426C26.5842 13.6989 26.5614 13.7492 26.5421 13.7929C26.5228 13.8365 26.4936 13.8685 26.4762 13.8968C26.4369 13.9517 26.4143 13.9827 26.4143 13.9827C26.4143 13.9827 26.4265 13.9461 26.4477 13.8822C26.4573 13.8502 26.4752 13.8139 26.4846 13.7694C26.494 13.7256 26.5042 13.6758 26.5155 13.6219C26.5138 13.5673 26.5249 13.5094 26.5162 13.45C26.5117 13.4209 26.507 13.3908 26.5025 13.36C26.495 13.3305 26.4813 13.3014 26.4719 13.271C26.4639 13.2403 26.4458 13.2131 26.4281 13.1852C26.4105 13.1575 26.3961 13.1277 26.3724 13.1032C26.3498 13.0782 26.33 13.05 26.3053 13.0262L26.2267 12.9574C26.1704 12.9156 26.1153 12.8709 26.0522 12.8386C25.9922 12.8023 25.9298 12.7708 25.8679 12.7424C25.7444 12.6878 25.6231 12.6438 25.5172 12.6128C25.4638 12.5984 25.4151 12.582 25.3715 12.5731C25.3273 12.5635 25.2896 12.5507 25.2566 12.5464C25.1912 12.5329 25.1545 12.5255 25.1545 12.5255Z" fill="#ED5349"/>
<path d="M26.6014 12.9916L26.5623 13.0294C26.3345 13.2463 26.6635 13.6071 26.8914 13.3904L26.931 13.3528C27.1586 13.1359 26.8293 12.7749 26.6014 12.9916Z" fill="#ED6E66"/>
<path d="M25.9369 12.4392L25.9126 12.4882C25.7709 12.7713 26.2012 12.9957 26.3427 12.7126L26.3667 12.6636C26.5086 12.3805 26.0786 12.1559 25.9369 12.4392Z" fill="#ED6E66"/>
</svg>
